<svg xmlns="http://www.w3.org/2000/svg" width="21" height="20" fill="none" viewBox="0 0 21 20">
  <path fill="#EE4A4C" d="M18.746 15.275c0 .3-.067.609-.208.909a3.44 3.44 0 0 1-.567.85c-.409.45-.858.775-1.367.983-.5.208-1.041.317-1.625.317-.85 0-1.758-.2-2.716-.609a14.634 14.634 0 0 1-2.867-1.65 23.962 23.962 0 0 1-2.734-2.333 23.682 23.682 0 0 1-2.325-2.725c-.683-.95-1.233-1.9-1.633-2.842-.4-.95-.6-1.858-.6-2.725 0-.566.1-1.108.3-1.608.2-.508.517-.975.958-1.392.534-.525 1.117-.783 1.734-.783.233 0 .466.05.675.15.216.1.408.25.558.467l1.933 2.725c.15.208.259.4.334.583.075.175.116.35.116.508 0 .2-.058.4-.175.592a2.834 2.834 0 0 1-.466.592l-.634.658a.446.446 0 0 0-.133.333c0 .067.008.125.025.192.025.067.05.117.067.167.15.275.408.633.775 1.066.375.434.775.875 1.208 1.317.45.442.883.85 1.325 1.225.433.367.792.617 1.075.767.042.016.092.041.15.066a.575.575 0 0 0 .208.034c.142 0 .25-.05.342-.142l.634-.625c.208-.208.408-.367.6-.467a1.11 1.11 0 0 1 .591-.175c.159 0 .325.034.508.109.184.075.376.183.584.325l2.758 1.958c.217.15.367.325.459.533.083.209.133.417.133.65Z"/>
</svg>
