<svg xmlns="http://www.w3.org/2000/svg" width="41" height="40" fill="none" viewBox="0 0 41 40">
  <path fill="#2E3E4E" d="m38.95 18.4-4.888-2.175V10c0-.688-.562-1.25-1.25-1.25h-3.124c-.688 0-1.25.563-1.25 1.25 0 .688.562 1.25 1.25 1.25h1.875v25h-3.125v-5c0-.688-.563-1.25-1.25-1.25h-12.5c-.688 0-1.25.563-1.25 1.25v5h-3.126v-25h1.876c.687 0 1.25-.563 1.25-1.25 0-.688-.563-1.25-1.25-1.25H9.062c-.687 0-1.25.563-1.25 1.25v6.225L2.926 18.4c-.45.2-.737.65-.737 1.138V37.5c0 .688.562 1.25 1.25 1.25h35c.687 0 1.25-.563 1.25-1.25V19.538c0-.5-.288-.938-.738-1.138ZM25.937 36.25h-3.75V32.5h3.75v3.75Zm-10-3.75h3.75v3.75h-3.75V32.5ZM4.688 20.35l3.125-1.388V36.25H4.688v-15.9Zm32.5 15.9h-3.124V18.962l3.124 1.388v15.9Z"/>
  <path fill="#2E3E4E" d="M18.438 25.612h-3.75c-.688 0-1.25.563-1.25 1.25 0 .688.562 1.25 1.25 1.25h3.75c.687 0 1.25-.562 1.25-1.25 0-.687-.563-1.25-1.25-1.25Zm5 2.5h3.75c.687 0 1.25-.562 1.25-1.25 0-.687-.563-1.25-1.25-1.25h-3.75c-.688 0-1.25.563-1.25 1.25 0 .688.562 1.25 1.25 1.25Zm0-5h3.75c.687 0 1.25-.562 1.25-1.25 0-.687-.563-1.25-1.25-1.25h-3.75c-.688 0-1.25.563-1.25 1.25 0 .688.562 1.25 1.25 1.25Zm-8.75 0h3.75c.687 0 1.25-.562 1.25-1.25 0-.687-.563-1.25-1.25-1.25h-3.75c-.688 0-1.25.563-1.25 1.25 0 .688.562 1.25 1.25 1.25Z"/>
  <path fill="#EE4A4C" d="m17.4 13.975 3.075 1.55a1.061 1.061 0 0 0 .95 0l3.075-1.55c1.65-.838 2.712-2.637 2.712-4.6V3.612c0-.575-.462-1.037-1.037-1.037-2.288 0-4.713-1.2-4.738-1.213a1.007 1.007 0 0 0-.925 0c-.024 0-2.45 1.213-4.737 1.213-.575 0-1.037.462-1.037 1.037v5.775c0 1.963 1.062 3.763 2.712 4.6l-.05-.012Zm.163-7.063a1.245 1.245 0 0 1 1.762 0l1.163 1.163 2.125-1.9a1.236 1.236 0 0 1 1.762.1c.462.512.425 1.3-.1 1.762l-3 2.7a1.26 1.26 0 0 1-.837.325 1.28 1.28 0 0 1-.888-.362l-2-2a1.245 1.245 0 0 1 0-1.762l.012-.026Z"/>
</svg>
