<svg xmlns="http://www.w3.org/2000/svg" width="41" height="40" fill="none" viewBox="0 0 41 40">
  <path fill="#2E3E4E" d="M29.488 14.162h-4.863a1.25 1.25 0 0 0-.975.475l-1.688 2.113-1.524-5.7c-.125-.45-.488-.8-.95-.9-.463-.1-.938.075-1.238.437l-2.863 3.575h-4.262c-.688 0-1.25.563-1.25 1.25 0 .688.563 1.25 1.25 1.25h4.863c.375 0 .737-.175.974-.475l1.688-2.112 1.525 5.7c.125.45.488.8.95.9.087.012.175.025.262.025.375 0 .738-.175.976-.475l2.862-3.575h4.262c.688 0 1.25-.563 1.25-1.25 0-.688-.562-1.25-1.25-1.25v.012Z"/>
  <path fill="#2E3E4E" d="m34.65 4.437-.587-.562a9.57 9.57 0 0 0-7.188-2.6c-2.55.175-4.813 1.35-6.375 3.287-.063.088-.125.163-.188.25-.062-.075-.125-.162-.187-.237-1.563-1.95-3.825-3.125-6.375-3.3a9.522 9.522 0 0 0-7.187 2.6l-.588.562c-3.187 3.038-4.5 7.575-3.412 11.825a12.147 12.147 0 0 0 3.325 5.788l13.55 13.15c.237.237.55.35.875.35.325 0 .625-.113.875-.35l1.987-1.925c.5-.475.512-1.275.025-1.763a1.234 1.234 0 0 0-1.762-.025l-1.113 1.088-12.675-12.3a9.787 9.787 0 0 1-2.65-4.6 9.714 9.714 0 0 1 2.713-9.413L8.3 5.7a7.035 7.035 0 0 1 5.3-1.913c1.838.125 3.475.963 4.6 2.375.725.9.913 1.613.913 1.613a1.23 1.23 0 0 0 1.2.962c.587.05 1.087-.387 1.225-.95 0 0 .187-.725.924-1.637 1.125-1.4 2.75-2.238 4.588-2.363A7.007 7.007 0 0 1 32.337 5.7l.588.562a9.77 9.77 0 0 1 3.013 7.038c0 .8-.1 1.6-.3 2.387a9.489 9.489 0 0 1-1.4 3.1 1.257 1.257 0 0 0 .325 1.738c.575.387 1.35.237 1.737-.325a11.776 11.776 0 0 0 1.75-3.9c.25-.988.375-1.988.375-3a12.23 12.23 0 0 0-3.787-8.838l.012-.025Z"/>
  <path fill="#EE4A4C" d="M39.112 22.7a1.221 1.221 0 0 0-1.187-.088c-2.375 1.075-4.875-.975-4.925-1.025-.462-.4-1.15-.4-1.613 0-.024.025-2.512 2.113-4.925 1.025A1.252 1.252 0 0 0 24.7 23.75v6.6a8.248 8.248 0 0 0 5.7 7.862l1.413.463c.125.037.262.062.387.062s.262-.025.387-.062L34 38.212a8.27 8.27 0 0 0 5.7-7.862v-6.6c0-.425-.213-.825-.575-1.05h-.013Zm-3.375 5.662L32.3 31.8c-.25.25-.562.362-.887.362a1.28 1.28 0 0 1-.888-.362l-1.9-1.9a1.245 1.245 0 0 1 0-1.763 1.245 1.245 0 0 1 1.762 0l1.026 1.025 2.55-2.55a1.245 1.245 0 0 1 1.762 0 1.245 1.245 0 0 1 0 1.763l.012-.013Z"/>
</svg>
