<svg xmlns="http://www.w3.org/2000/svg" width="21" height="20" fill="none" viewBox="0 0 21 20">
  <g clip-path="url(#a)">
    <path fill="#EE4A4C" d="M17.62 7.041c-.874-3.85-4.233-5.583-7.183-5.583h-.008c-2.942 0-6.308 1.725-7.183 5.575-.975 4.3 1.658 7.942 4.041 10.233a4.53 4.53 0 0 0 3.15 1.275 4.496 4.496 0 0 0 3.142-1.275c2.383-2.291 5.017-5.925 4.042-10.225Zm-7.183 4.175a2.625 2.625 0 1 1 0-5.249 2.625 2.625 0 0 1 0 5.25Z"/>
  </g>
  <defs>
    <clipPath id="a">
      <path fill="#fff" d="M.438 0h20v20h-20z"/>
    </clipPath>
  </defs>
</svg>
