<svg xmlns="http://www.w3.org/2000/svg" width="61" height="60" fill="none" viewBox="0 0 61 60">
  <circle cx="30.031" cy="30" r="30" fill="#97004F"/>
  <path fill="#F7B219" d="M19.317 24.643h3.14c.589 0 1.07-.482 1.07-1.072 0-.589-.481-1.071-1.07-1.071h-3.14c-.59 0-1.071.482-1.071 1.071 0 .59.482 1.072 1.071 1.072Zm7.425 0c.59 0 1.072-.482 1.072-1.072 0-.589-.483-1.071-1.072-1.071h-.996c-.59 0-1.072.482-1.072 1.071 0 .59.482 1.072 1.072 1.072h.996Z"/>
  <path fill="#fff" d="M19.317 28.929h7.425c.59 0 1.072-.482 1.072-1.071 0-.59-.483-1.072-1.072-1.072h-7.425c-.59 0-1.071.482-1.071 1.072 0 .589.482 1.071 1.071 1.071Zm0 4.285h7.425c.59 0 1.072-.482 1.072-1.071 0-.59-.483-1.072-1.072-1.072h-7.425c-.59 0-1.071.482-1.071 1.072 0 .589.482 1.071 1.071 1.071Zm9.568 3.215c0-.59-.482-1.072-1.072-1.072h-8.496c-.59 0-1.071.483-1.071 1.072 0 .59.482 1.071 1.071 1.071h8.497c.589 0 1.07-.482 1.07-1.071Zm-5.282 5.356h5.282c.59 0 1.071-.482 1.071-1.071 0-.59-.482-1.071-1.071-1.071h-5.282c-.59 0-1.072.482-1.072 1.071 0 .59.483 1.071 1.072 1.071Zm-4.286-2.142c-.59 0-1.071.482-1.071 1.071 0 .59.482 1.071 1.071 1.071h.997c.589 0 1.07-.482 1.07-1.071 0-.59-.481-1.071-1.07-1.071h-.997Z"/>
  <path fill="#fff" d="M35.389 24.954c.589 0 1.07-.482 1.07-1.072V18.75c0-1.478-1.178-2.678-2.635-2.678h-3.193a3.204 3.204 0 0 0-3.021-2.143h-5.357c-1.393 0-2.572.9-3.022 2.143h-2.657c-1.457 0-2.636 1.2-2.636 2.678v24.643c0 1.479 1.179 2.679 2.636 2.679h17.229c1.457 0 2.636-1.2 2.636-2.679v-1.157c0-.59-.483-1.072-1.072-1.072-.59 0-1.071.483-1.071 1.072v1.157c0 .3-.225.536-.493.536H16.596c-.268 0-.493-.236-.493-.536V18.75c0-.3.225-.536.493-.536h2.453v1.072c0 .59.482 1.071 1.072 1.071h9.643c.589 0 1.07-.482 1.07-1.071v-1.072h2.99c.268 0 .493.236.493.536v5.132c0 .59.482 1.072 1.072 1.072Zm-6.697-6.74h-7.5v-1.071c0-.59.482-1.071 1.072-1.071h5.357c.589 0 1.071.482 1.071 1.071v1.071Z"/>
  <path fill="#F7B219" d="M45.17 26.679c-2.72 0-5.592-1.415-5.624-1.436a.953.953 0 0 0-.836 0c-.032.01-2.904 1.436-5.625 1.436a.933.933 0 0 0-.932.932v6.686c0 2.164 1.168 4.157 2.989 5.078l3.557 1.8a.956.956 0 0 0 .836 0l3.557-1.8c1.81-.921 2.99-2.914 2.99-5.078V27.61a.933.933 0 0 0-.933-.932h.022Zm-2.11 5.593-3.857 3.47a1.08 1.08 0 0 1-.718.28c-.279 0-.547-.108-.76-.311l-2.572-2.572a1.067 1.067 0 1 1 1.51-1.51l1.854 1.853 3.107-2.785a1.06 1.06 0 0 1 1.51.085c.397.44.354 1.114-.085 1.51l.01-.02Z"/>
</svg>
