<svg xmlns="http://www.w3.org/2000/svg" width="61" height="60" fill="none" viewBox="0 0 61 60">
  <circle cx="30.031" cy="30" r="30" fill="#97004F"/>
  <path fill="#fff" d="m38.892 38.218-2.572-2.571a3.563 3.563 0 0 0-5.024 0l-.74.74a17.021 17.021 0 0 1-6.921-6.922l.74-.74a3.563 3.563 0 0 0 0-5.024l-2.572-2.572a2.697 2.697 0 0 0-3.793 0l-2.86 2.86c-1.33 1.33-1.587 3.44-.644 5.39 3.332 6.91 9.215 12.793 16.125 16.125a5.458 5.458 0 0 0 2.357.557c1.157 0 2.229-.407 3.032-1.21l2.861-2.861a2.666 2.666 0 0 0 .782-1.897c0-.718-.278-1.393-.782-1.896l.01.021Zm-1.51 2.272-2.861 2.86c-.675.675-1.833.772-2.936.236-6.482-3.128-12-8.646-15.129-15.128-.535-1.115-.44-2.261.236-2.936l2.86-2.86a.538.538 0 0 1 .376-.162.52.52 0 0 1 .375.161l2.56 2.572a1.416 1.416 0 0 1 0 1.992l-1.285 1.286a1.09 1.09 0 0 0-.193 1.243 19.157 19.157 0 0 0 8.914 8.904c.407.203.91.128 1.232-.204l1.286-1.286a1.416 1.416 0 0 1 1.993 0l2.571 2.572a.521.521 0 0 1 0 .75Z"/>
  <path fill="#F7B219" d="M45.031 15.697c-3.14 0-6.45-1.64-6.482-1.65-.3-.15-.654-.15-.953 0-.033.021-3.343 1.65-6.483 1.65-.589 0-1.071.482-1.071 1.072v7.714c0 2.496 1.35 4.8 3.44 5.86l4.103 2.08c.15.074.321.117.482.117.16 0 .332-.043.482-.118l4.104-2.078c2.089-1.061 3.439-3.354 3.439-5.861v-7.715c0-.589-.482-1.07-1.072-1.07h.011Zm-2.496 6.31-4.5 4.05a1.08 1.08 0 0 1-.718.28c-.279 0-.547-.108-.76-.311l-3-3a1.067 1.067 0 1 1 1.51-1.511l2.282 2.282 3.75-3.364a1.069 1.069 0 0 1 1.51.085 1.06 1.06 0 0 1-.085 1.511l.01-.021Z"/>
</svg>
