<svg xmlns="http://www.w3.org/2000/svg" width="21" height="20" fill="none" viewBox="0 0 21 20">
  <path fill="#EE4A4C" d="M14.604 2.917H6.271c-2.5 0-4.167 1.25-4.167 4.167v5.833c0 2.917 1.667 4.167 4.167 4.167h8.333c2.5 0 4.167-1.25 4.167-4.167V7.084c0-2.917-1.667-4.167-4.167-4.167Zm.392 5.075-2.609 2.083c-.55.442-1.25.659-1.95.659s-1.408-.217-1.95-.659L5.88 7.992a.641.641 0 0 1-.1-.883.623.623 0 0 1 .875-.1l2.608 2.083c.634.508 1.709.508 2.342 0l2.609-2.083a.615.615 0 0 1 .875.1.632.632 0 0 1-.092.883Z"/>
</svg>
