<svg xmlns="http://www.w3.org/2000/svg" width="41" height="40" fill="none" viewBox="0 0 41 40">
  <path fill="#2E3E4E" d="M32.813 7.5H30c-.688 0-1.25.563-1.25 1.25 0 .688.563 1.25 1.25 1.25h2.813c.35 0 .624.275.624.625v25c0 .35-.274.625-.624.625H9.063a.619.619 0 0 1-.626-.625v-25A.62.62 0 0 1 9.063 10h2.812c.688 0 1.25-.563 1.25-1.25 0-.688-.563-1.25-1.25-1.25H9.062a3.126 3.126 0 0 0-3.124 3.125v25c0 1.725 1.4 3.125 3.125 3.125h23.75c1.724 0 3.124-1.4 3.124-3.125v-25c0-1.725-1.4-3.125-3.124-3.125Z"/>
  <path fill="#2E3E4E" d="M25.313 25.625h5c.687 0 1.25-.563 1.25-1.25 0-.688-.563-1.25-1.25-1.25h-5c-.688 0-1.25.563-1.25 1.25 0 .688.562 1.25 1.25 1.25Zm0 5h5c.687 0 1.25-.563 1.25-1.25 0-.688-.563-1.25-1.25-1.25h-5c-.688 0-1.25.563-1.25 1.25 0 .688.562 1.25 1.25 1.25Zm-12.938-4.2a3.461 3.461 0 0 0-2.063 3.162V32.5c0 .688.563 1.25 1.25 1.25h10c.688 0 1.25-.563 1.25-1.25v-2.913a3.46 3.46 0 0 0-2.062-3.162c.25-.563.387-1.188.387-1.838A4.59 4.59 0 0 0 16.55 20a4.583 4.583 0 0 0-4.2 6.425h.025Zm4.188-3.925c1.15 0 2.087.938 2.087 2.087 0 1.15-.938 2.088-2.087 2.088a2.091 2.091 0 0 1-2.088-2.088c0-1.15.938-2.087 2.088-2.087Zm-3.75 7.087c0-.537.437-.974.974-.974h.638c.637.337 1.362.55 2.137.55.775 0 1.5-.213 2.138-.55h.637c.538 0 .976.437.976.974v1.663h-7.5v-1.663Z"/>
  <path fill="#EE4A4C" d="m17.038 15.25 3.4 1.725c.162.075.325.125.5.125s.337-.038.5-.125l3.4-1.725c1.8-.912 2.974-2.9 2.974-5.05V3.813c0-.613-.487-1.1-1.1-1.1-2.55 0-5.25-1.338-5.287-1.35a1.14 1.14 0 0 0-.988 0c-.024.012-2.737 1.35-5.287 1.35-.613 0-1.1.487-1.1 1.1v6.4c0 2.15 1.162 4.125 2.975 5.05l.013-.013Zm-.1-7.775a1.245 1.245 0 0 1 1.762 0l1.663 1.662 2.875-2.587A1.247 1.247 0 1 1 24.9 8.412l-3.75 3.375a1.26 1.26 0 0 1-.837.325 1.28 1.28 0 0 1-.888-.362l-2.5-2.5a1.245 1.245 0 0 1 0-1.763l.012-.012Z"/>
</svg>
