<svg xmlns="http://www.w3.org/2000/svg" width="61" height="60" fill="none" viewBox="0 0 61 60">
  <circle cx="30.031" cy="30" r="30" fill="#97004F"/>
  <path fill="#fff" d="M43.96 28.393h-4.286v-2.678a5.36 5.36 0 0 0-5.357-5.358H28.96c-.59 0-1.072.483-1.072 1.072a3.224 3.224 0 0 1-3.214 3.214H21.46c-.59 0-1.072.482-1.072 1.072v2.678h-4.285a2.15 2.15 0 0 0-2.143 2.143v4.286a2.15 2.15 0 0 0 2.143 2.143h4.317c.28 5.067 4.48 9.107 9.611 9.107 3.332 0 6.279-1.704 8.014-4.286h2.7a3.224 3.224 0 0 0 3.215-3.214v-1.607a2.15 2.15 0 0 0 2.143-2.143v-4.286a2.15 2.15 0 0 0-2.143-2.143Zm-27.857 2.143h4.285v4.286h-4.285v-4.286ZM30.03 43.929c-4.136 0-7.5-3.364-7.5-7.5v-9.643h2.143a5.367 5.367 0 0 0 5.25-4.286h4.393a3.224 3.224 0 0 1 3.214 3.215v10.714c0 1.146-.268 2.24-.74 3.214h-2.528c-.589 0-1.071.482-1.071 1.072 0 .589.482 1.071 1.071 1.071h.997a7.449 7.449 0 0 1-5.24 2.143h.011Zm11.786-5.357c0 .589-.482 1.071-1.072 1.071h-1.639a9.68 9.68 0 0 0 .536-2.678h2.175v1.607Zm2.143-3.75h-4.286v-4.286h4.286v4.286Z"/>
  <path fill="#F7B219" d="M34.156 36.515a1.067 1.067 0 0 0-1.51 0 3.699 3.699 0 0 1-5.218 0 1.067 1.067 0 1 0-1.51 1.51 5.806 5.806 0 0 0 4.124 1.704c1.5 0 2.99-.568 4.125-1.704a1.067 1.067 0 0 0 0-1.51h-.01Z"/>
  <path fill="#fff" d="M34.317 33.311c.59 0 1.071-.482 1.071-1.071v-2.143c0-.59-.482-1.072-1.071-1.072-.59 0-1.072.483-1.072 1.072v2.143c0 .589.483 1.071 1.072 1.071Zm-7.5-1.071v-2.143c0-.59-.482-1.072-1.072-1.072-.589 0-1.07.483-1.07 1.072v2.143c0 .589.481 1.071 1.07 1.071.59 0 1.072-.482 1.072-1.071Z"/>
  <path fill="#F7B219" d="M33.245 13.929h-6.428c-5.904 0-10.714 4.81-10.714 10.714v1.607h2.142v-.536A3.224 3.224 0 0 1 21.46 22.5h3.214c.59 0 1.072-.482 1.072-1.071a3.224 3.224 0 0 1 3.214-3.215h5.357c4.136 0 7.5 3.365 7.5 7.5v.536h2.143v-1.607c0-5.904-4.81-10.714-10.715-10.714Z"/>
</svg>
