<svg xmlns="http://www.w3.org/2000/svg" width="25" height="24" fill="none" viewBox="0 0 25 24">
  <path fill="#EE4A4C" d="m21.963 11.48 2.974-2.76L17.085.703l-1.636 1.629h-3.285c-.58 0-1.148.169-1.634.475L8.315 1.14.938 8.305l2.332 3.89a2.21 2.21 0 0 0-.34.278l-1.157 1.155a2.205 2.205 0 0 0 1.283 3.745 2.188 2.188 0 0 0 .64 1.687c.408.41.94.624 1.477.644a2.195 2.195 0 0 0 2.2 2.125c.243 0 .485-.04.717-.119a2.195 2.195 0 0 0 2.103 1.544c.563 0 1.126-.213 1.556-.642l.649-.648c.073-.072.139-.149.2-.229l.369.326a2.24 2.24 0 0 0 1.578.643h.002a2.245 2.245 0 0 0 1.596-.663c.27-.27.462-.597.567-.953.236.081.486.124.742.124h.003c.603 0 1.17-.236 1.595-.663.315-.315.516-.701.605-1.107.155.033.314.05.476.05h.003a2.255 2.255 0 0 0 2.226-2.61 2.23 2.23 0 0 0 1.193-.625 2.26 2.26 0 0 0-.003-3.193l-1.587-1.584ZM10.99 4.226c.308-.31.736-.488 1.174-.488h3.865l1.043-1.039 5.85 5.973-1.955 1.815-4.937-4.935h-3.672l-2.47 2.515a.954.954 0 0 1-.683.288.947.947 0 0 1-.685-.284.964.964 0 0 1 0-1.354l2.47-2.49ZM2.764 15.75a.798.798 0 0 1 .002-1.127l1.156-1.154a.795.795 0 0 1 1.128.001c.31.311.31.817-.001 1.127l-1.157 1.155a.798.798 0 0 1-1.128-.002Zm1.926 2.317a.792.792 0 0 1-.233-.564c0-.213.084-.413.235-.564l1.35-1.346a.79.79 0 0 1 .562-.233h.001a.793.793 0 0 1 .797.798.79.79 0 0 1-.235.563l-1.35 1.347a.798.798 0 0 1-1.127-.001Zm3.247 2.125a.798.798 0 0 1-1.127-1.129l1.35-1.347a.798.798 0 0 1 1.126 1.13l-1.35 1.346Zm3.468.777-.65.648a.798.798 0 0 1-1.125-1.129l.65-.648a.794.794 0 0 1 1.127.002c.15.15.233.35.232.564a.79.79 0 0 1-.234.563Zm11.153-5.705a.846.846 0 0 1-.602.25.847.847 0 0 1-.602-.249l-3.395-3.387-.993.995 3.767 3.759a.853.853 0 0 1-.6 1.455h-.002a.847.847 0 0 1-.602-.249l-.482-.481-3.285-3.278-.993.995 3.285 3.278a.853.853 0 0 1-1.204 1.206l-3.284-3.278-.993.995 2.573 2.568a.853.853 0 0 1-.6 1.455h-.001a.847.847 0 0 1-.602-.249l-.015-.015-.89-.785a2.185 2.185 0 0 0-.636-1.4 2.186 2.186 0 0 0-1.479-.645 2.194 2.194 0 0 0-2.119-2.123 2.195 2.195 0 0 0-.64-1.48 2.187 2.187 0 0 0-1.479-.645 2.195 2.195 0 0 0-1.989-2.115l-1.98-3.304 5.715-5.55 1.036.78-1.945 1.96a2.374 2.374 0 0 0 0 3.334 2.35 2.35 0 0 0 1.68.7h.007a2.35 2.35 0 0 0 1.682-.709l2.057-2.094h2.5l7.11 7.101a.853.853 0 0 1 0 1.205Z"/>
</svg>
